<svg width="45" height="29" viewBox="0 0 45 29" fill="none" xmlns="http://www.w3.org/2000/svg">
<path d="M26.5 5.21094V11.5586H33.5703C34.8333 11.5586 35.8555 11.3242 36.6367 10.8555C37.431 10.3737 37.8281 9.52734 37.8281 8.31641C37.8281 6.97526 37.3073 6.08984 36.2656 5.66016C35.3672 5.36068 34.2214 5.21094 32.8281 5.21094H26.5ZM26.5 16.3242V24H33.5703C34.8333 24 35.8164 23.8307 36.5195 23.4922C37.7956 22.8672 38.4336 21.6693 38.4336 19.8984C38.4336 18.401 37.8151 17.3724 36.5781 16.8125C35.888 16.5 34.918 16.3372 33.668 16.3242H26.5ZM34.7422 0.210938C38.2708 0.263021 40.7708 1.28516 42.2422 3.27734C43.1276 4.5013 43.5703 5.96615 43.5703 7.67188C43.5703 9.42969 43.1276 10.8424 42.2422 11.9102C41.7474 12.5091 41.0182 13.056 40.0547 13.5508C41.526 14.0846 42.6328 14.931 43.375 16.0898C44.1302 17.2487 44.5078 18.6549 44.5078 20.3086C44.5078 22.0143 44.0781 23.5443 43.2188 24.8984C42.6719 25.7969 41.9883 26.5521 41.168 27.1641C40.2435 27.8672 39.1497 28.349 37.8867 28.6094C36.6367 28.8698 35.276 29 33.8047 29H20.7578V10.5794V0.210938H34.7422Z" fill="#244B30"/>
<path fill-rule="evenodd" clip-rule="evenodd" d="M17.0859 0.210938H10.2891L0.015625 29H6.30469L8.29688 23.082H18.9023L20.7578 29V10.5794L17.0859 0.210938ZM17.2227 18.1211H9.91797L13.6289 6.79297L17.2227 18.1211Z" fill="#5AAD71"/>
</svg>
